<?xml version="1.0" encoding="utf-8"?>
<?xml-stylesheet type="text/xsl" href="rss1.xsl"?>
<rss version="2.0" xmlns:atom="http://www.w3.org/2005/Atom" xmlns:content="http://purl.org/rss/1.0/modules/content/" xmlns:dc="http://purl.org/dc/elements/1.1/" xmlns:media="http://search.yahoo.com/mrss/">
<channel>
 <title>Getty</title>
 <link>http://www.gettyimg.com/</link>
 <atom:link href="http://www.gettyimg.com/" rel="self" type="application/rss+xml" />

 
                <item>
                <title><![CDATA[【HD Live Performances】WEB-DL - Limp Bizkit Lollapalooza Argentina (2024) 1080p FLOW WEB-DL AAC2.0 H.264-fstambuk]]></title>
                <link><![CDATA[https://sharemania.us/threads/limp-bizkit-lollapalooza-argentina-2024-1080p-flow-web-dl-aac2-0-h-264-fstambuk.240221/]]></link>
                <description><![CDATA[<article>
<blockquote class="messageText SelectQuoteContainer ugc baseHtml">
<div style="text-align: center"><img src="https://i.ibb.co/gyrkfZB/20240318132041.gif" class="bbCodeImage LbImage" alt="[​IMG]" data-url="https://i.ibb.co/gyrkfZB/20240318132041.gif" style=""><br>
​</div>
<div class="ToggleTriggerAnchor bbCodeSpoilerContainer">
<button type="button" class="button bbCodeSpoilerButton ToggleTrigger Tooltip JsOnly" data-target="> .SpoilerTarget"><span>Spoiler: <span class="SpoilerTitle">Lollapalooza</span></span></button>
<div class="SpoilerTarget bbCodeSpoilerText">
<div class="bbCodeBlock bbCodeCode">
<div class="type">Code:</div>
<pre>Complete name                            : Limp Bizkit Lollapalooza Argentina (2024) 1080p FLOW WEB-DL AAC2.0 H.264-fstambuk.mkv
Format                                   : Matroska
Format version                           : Version 4
File size                                : 2.13 GiB
Duration                                 : 59 min 57 s
Overall bit rate                         : 5 096 kb/s
Frame rate                               : 29.970 FPS
Encoded date                             : 2024-03-18 02:53:00 UTC
Writing application                      : mkvmerge v82.0 ('I'm The President') 64-bit
Writing library                          : libebml v1.4.5 + libmatroska v1.7.1

Video
ID                                       : 1
Format                                   : AVC
Format/Info                              : Advanced Video Codec
Format profile                           : High@L4
Format settings                          : CABAC / 3 Ref Frames
Format settings, CABAC                   : Yes
Format settings, Reference frames        : 3 frames
Format settings, GOP                     : M=1, N=60
Codec ID                                 : V_MPEG4/ISO/AVC
Duration                                 : 59 min 57 s
Bit rate                                 : 4 998 kb/s
Width                                    : 1 920 pixels
Height                                   : 1 080 pixels
Display aspect ratio                     : 16:9
Frame rate mode                          : Constant
Frame rate                               : 29.970 (30000/1001) FPS
Color space                              : YUV
Chroma subsampling                       : 4:2:0
Bit depth                                : 8 bits
Scan type                                : Progressive
Bits/(Pixel*Frame)                       : 0.080
Stream size                              : 2.09 GiB (98%)
Default                                  : Yes
Forced                                   : No

Audio
ID                                       : 2
Format                                   : AAC LC SBR
Format/Info                              : Advanced Audio Codec Low Complexity with Spectral Band Replication
Commercial name                          : HE-AAC
Format settings                          : Implicit
Codec ID                                 : 2 / A_AAC-2
Duration                                 : 59 min 57 s
Bit rate                                 : 96.0 kb/s
Channel(s)                               : 2 channels
Channel layout                           : L R
Sampling rate                            : 48.0 kHz
Frame rate                               : 23.438 FPS (2048 SPF)
Compression mode                         : Lossy
Stream size                              : 41.2 MiB (2%)
Title                                    : Spanish
Language                                 : Spanish
Default                                  : Yes
Forced                                   : No

</pre>
</div><div style="text-align: center">​</div></div>
</div><div style="text-align: center"><br>
<div class="bbCodeBlock bbCodeVfcHH HiddenContent">
<div class="attribution type">Hidden Content:</div>
<blockquote>You must reply before you can see the hidden data contained here.</blockquote>
</div></div>
<div class="messageTextEndMarker">&nbsp;</div>
</blockquote>
</article>]]></description>
                <author><![CDATA[fstambuk]]></author>
                </item>

                
                <item>
                <title><![CDATA[【HD Live Performances】WEB-DL - Hozier Lollapalooza Argentina (2024) 1080p FLOW WEB-DL AAC2.0 H.264-fstambuk]]></title>
                <link><![CDATA[https://sharemania.us/threads/hozier-lollapalooza-argentina-2024-1080p-flow-web-dl-aac2-0-h-264-fstambuk.240220/]]></link>
                <description><![CDATA[<article>
<blockquote class="messageText SelectQuoteContainer ugc baseHtml">
<div style="text-align: center"><img src="https://i.ibb.co/99pxC7b/20240318131600.gif" class="bbCodeImage LbImage" alt="[​IMG]" data-url="https://i.ibb.co/99pxC7b/20240318131600.gif" style=""><br>
​</div>
<div class="ToggleTriggerAnchor bbCodeSpoilerContainer">
<button type="button" class="button bbCodeSpoilerButton ToggleTrigger Tooltip JsOnly" data-target="> .SpoilerTarget"><span>Spoiler: <span class="SpoilerTitle">Lollapalooza</span></span></button>
<div class="SpoilerTarget bbCodeSpoilerText">
<div class="bbCodeBlock bbCodeCode">
<div class="type">Code:</div>
<pre>Complete name                            : Hozier Lollapalooza Argentina (2024) 1080p FLOW WEB-DL AAC2.0 H.264-fstambuk.mkv
Format                                   : Matroska
Format version                           : Version 4
File size                                : 2.15 GiB
Duration                                 : 1 h 0 min
Overall bit rate                         : 5 093 kb/s
Frame rate                               : 29.970 FPS
Encoded date                             : 2024-03-18 02:41:02 UTC
Writing application                      : mkvmerge v82.0 ('I'm The President') 64-bit
Writing library                          : libebml v1.4.5 + libmatroska v1.7.1

Video
ID                                       : 1
Format                                   : AVC
Format/Info                              : Advanced Video Codec
Format profile                           : High@L4
Format settings                          : CABAC / 3 Ref Frames
Format settings, CABAC                   : Yes
Format settings, Reference frames        : 3 frames
Format settings, GOP                     : M=1, N=60
Codec ID                                 : V_MPEG4/ISO/AVC
Duration                                 : 1 h 0 min
Bit rate                                 : 4 994 kb/s
Width                                    : 1 920 pixels
Height                                   : 1 080 pixels
Display aspect ratio                     : 16:9
Frame rate mode                          : Constant
Frame rate                               : 29.970 (30000/1001) FPS
Color space                              : YUV
Chroma subsampling                       : 4:2:0
Bit depth                                : 8 bits
Scan type                                : Progressive
Bits/(Pixel*Frame)                       : 0.080
Stream size                              : 2.11 GiB (98%)
Default                                  : Yes
Forced                                   : No

Audio
ID                                       : 2
Format                                   : AAC LC SBR
Format/Info                              : Advanced Audio Codec Low Complexity with Spectral Band Replication
Commercial name                          : HE-AAC
Format settings                          : Implicit
Codec ID                                 : 2 / A_AAC-2
Duration                                 : 1 h 0 min
Bit rate                                 : 96.0 kb/s
Channel(s)                               : 2 channels
Channel layout                           : L R
Sampling rate                            : 48.0 kHz
Frame rate                               : 23.438 FPS (2048 SPF)
Compression mode                         : Lossy
Stream size                              : 41.5 MiB (2%)
Title                                    : Spanish
Language                                 : Spanish
Default                                  : Yes
Forced                                   : No

</pre>
</div><div style="text-align: center">​</div></div>
</div><div style="text-align: center"><br>
<div class="bbCodeBlock bbCodeVfcHH HiddenContent">
<div class="attribution type">Hidden Content:</div>
<blockquote>You must reply before you can see the hidden data contained here.</blockquote>
</div></div>
<div class="messageTextEndMarker">&nbsp;</div>
</blockquote>
</article>]]></description>
                <author><![CDATA[fstambuk]]></author>
                </item>

                
                <item>
                <title><![CDATA[【HD Live Performances】WEB-DL - Thirty Seconds To Mars Lollapalooza Argentina (2024) 1080p FLOW WEB-DL AAC2.0 H.264-fstambuk]]></title>
                <link><![CDATA[https://sharemania.us/threads/thirty-seconds-to-mars-lollapalooza-argentina-2024-1080p-flow-web-dl-aac2-0-h-264-fstambuk.240222/]]></link>
                <description><![CDATA[<article>
<blockquote class="messageText SelectQuoteContainer ugc baseHtml">
thanks
<div class="messageTextEndMarker">&nbsp;</div>
</blockquote>
</article>]]></description>
                <author><![CDATA[fstambuk]]></author>
                </item>

                
                <item>
                <title><![CDATA[【SD】PACK - The Pussycat Dolls - Buttons +3 (2005) (Promo Only) [VOB]]]></title>
                <link><![CDATA[https://sharemania.us/threads/the-pussycat-dolls-buttons-3-2005-promo-only-vob.240219/]]></link>
                <description><![CDATA[<article>
<blockquote class="messageText SelectQuoteContainer ugc baseHtml">
<div style="text-align: center"><img src="https://i.ibb.co/PCXn8XW/20240318132538.gif" class="bbCodeImage LbImage" alt="[​IMG]" data-url="https://i.ibb.co/PCXn8XW/20240318132538.gif" style=""><br>
​</div>
<div class="ToggleTriggerAnchor bbCodeSpoilerContainer">
<button type="button" class="button bbCodeSpoilerButton ToggleTrigger Tooltip JsOnly" data-target="> .SpoilerTarget"><span>Spoiler: <span class="SpoilerTitle">Lollapalooza</span></span></button>
<div class="SpoilerTarget bbCodeSpoilerText">
<div class="bbCodeBlock bbCodeCode">
<div class="type">Code:</div>
<pre>Complete name                            : Thirty Seconds To Mars Lollapalooza Argentina (2024) 1080p FLOW WEB-DL AAC2.0 H.264-fstambuk.mkv
Format                                   : Matroska
Format version                           : Version 4
File size                                : 1.95 GiB
Duration                                 : 56 min 29 s
Overall bit rate                         : 4 937 kb/s
Frame rate                               : 29.970 FPS
Encoded date                             : 2024-03-18 02:47:37 UTC
Writing application                      : mkvmerge v82.0 ('I'm The President') 64-bit
Writing library                          : libebml v1.4.5 + libmatroska v1.7.1

Video
ID                                       : 1
Format                                   : AVC
Format/Info                              : Advanced Video Codec
Format profile                           : High@L4
Format settings                          : CABAC / 3 Ref Frames
Format settings, CABAC                   : Yes
Format settings, Reference frames        : 3 frames
Format settings, GOP                     : M=1, N=60
Codec ID                                 : V_MPEG4/ISO/AVC
Duration                                 : 56 min 29 s
Bit rate                                 : 4 839 kb/s
Width                                    : 1 920 pixels
Height                                   : 1 080 pixels
Display aspect ratio                     : 16:9
Active Format Description                : Full frame 16:9 image
Frame rate mode                          : Constant
Frame rate                               : 29.970 (30000/1001) FPS
Color space                              : YUV
Chroma subsampling                       : 4:2:0
Bit depth                                : 8 bits
Scan type                                : Progressive
Bits/(Pixel*Frame)                       : 0.078
Stream size                              : 1.91 GiB (98%)
Default                                  : Yes
Forced                                   : No

Audio
ID                                       : 2
Format                                   : AAC LC SBR
Format/Info                              : Advanced Audio Codec Low Complexity with Spectral Band Replication
Commercial name                          : HE-AAC
Format settings                          : Implicit
Codec ID                                 : 2 / A_AAC-2
Duration                                 : 56 min 29 s
Bit rate                                 : 96.0 kb/s
Channel(s)                               : 2 channels
Channel layout                           : L R
Sampling rate                            : 48.0 kHz
Frame rate                               : 23.438 FPS (2048 SPF)
Compression mode                         : Lossy
Stream size                              : 38.8 MiB (2%)
Title                                    : Spanish
Language                                 : Spanish
Default                                  : Yes
Forced                                   : No

</pre>
</div><div style="text-align: center">​</div></div>
</div><div style="text-align: center"><br>
<div class="bbCodeBlock bbCodeVfcHH HiddenContent">
<div class="attribution type">Hidden Content:</div>
<blockquote>You must reply before you can see the hidden data contained here.</blockquote>
</div></div>
<div class="messageTextEndMarker">&nbsp;</div>
</blockquote>
</article>]]></description>
                <author><![CDATA[Fan Made]]></author>
                </item>

                </channel></rss>